<?xml version="1.0" encoding="utf-8"?>
<!-- Generator: Adobe Illustrator 24.3.0, SVG Export Plug-In . SVG Version: 6.00 Build 0)  -->
<svg version="1.1" id="Ebene_1" xmlns="http://www.w3.org/2000/svg" xmlns:xlink="http://www.w3.org/1999/xlink" x="0px" y="0px"
	 viewBox="0 0 24 24" style="enable-background:new 0 0 24 24;" xml:space="preserve">
<polygon style="display:none;" points="22,8 22,10 20,10 20,12 18,12 18,14 16,14 16,16 14,16 14,18 10,18 10,16 8,16 8,14 6,14 
	6,12 4,12 4,10 2,10 2,8 0,8 0,6 24,6 24,8 "/>
<polygon points="2.1,4.9 9.2,12 2.1,19.1 4.9,21.9 12,14.8 19.1,21.9 21.9,19.1 14.8,12 21.9,4.9 19.1,2.1 12,9.2 4.9,2.1 "/>
</svg>
